<?xml version="1.0" encoding="UTF-8" standalone="no"?>
<!DOCTYPE svg PUBLIC "-//W3C//DTD SVG 1.1//EN"
 "http://www.w3.org/Graphics/SVG/1.1/DTD/svg11.dtd">
<!-- Generated by graphviz version 2.40.1 (20161225.0304)
 -->
<!-- Title: dependencies Pages: 1 -->
<svg width="2930pt" height="284pt"
 viewBox="0.00 0.00 2930.00 284.00" xmlns="http://www.w3.org/2000/svg" xmlns:xlink="http://www.w3.org/1999/xlink">
<g id="graph0" class="graph" transform="scale(1 1) rotate(0) translate(4 280)">
<title>dependencies</title>
<polygon fill="#ffffff" stroke="transparent" points="-4,4 -4,-280 2926,-280 2926,4 -4,4"/>
<text text-anchor="start" x="1440.0091" y="-42.4" font-family="sans-serif" font-weight="bold" font-size="14.00" fill="#000000">Legend</text>
<polygon fill="#ffffb3" stroke="transparent" points="1227,-10 1227,-30 1247,-30 1247,-10 1227,-10"/>
<text text-anchor="start" x="1250.629" y="-15.4" font-family="sans-serif" font-size="14.00" fill="#000000"> &#160;Declarations</text>
<polygon fill="#8dd3c7" stroke="transparent" points="1340,-10 1340,-30 1360,-30 1360,-10 1340,-10"/>
<text text-anchor="start" x="1363.7251" y="-15.4" font-family="sans-serif" font-size="14.00" fill="#000000"> &#160;Module</text>
<polygon fill="#80b1d3" stroke="transparent" points="1426,-10 1426,-30 1446,-30 1446,-10 1426,-10"/>
<text text-anchor="start" x="1449.7812" y="-15.4" font-family="sans-serif" font-size="14.00" fill="#000000"> &#160;Bootstrap</text>
<polygon fill="#fdb462" stroke="transparent" points="1523,-10 1523,-30 1543,-30 1543,-10 1523,-10"/>
<text text-anchor="start" x="1546.6732" y="-15.4" font-family="sans-serif" font-size="14.00" fill="#000000"> &#160;Providers</text>
<polygon fill="#fb8072" stroke="transparent" points="1619,-10 1619,-30 1639,-30 1639,-10 1619,-10"/>
<text text-anchor="start" x="1642.7258" y="-15.4" font-family="sans-serif" font-size="14.00" fill="#000000"> &#160;Exports</text>
<g id="clust1" class="cluster">
<title>cluster_AppModule</title>
<polygon fill="none" stroke="#000000" stroke-dasharray="1,5" points="8,-70 8,-268 2914,-268 2914,-70 8,-70"/>
</g>
<g id="clust2" class="cluster">
<title>cluster_AppModule_declarations</title>
<polygon fill="none" stroke="#000000" points="168,-78 168,-130 2906,-130 2906,-78 168,-78"/>
</g>
<g id="clust21" class="cluster">
<title>cluster_AppModule_imports</title>
<polygon fill="none" stroke="#000000" points="16,-78 16,-130 160,-130 160,-78 16,-78"/>
</g>
<g id="clust23" class="cluster">
<title>cluster_AppModule_bootstrap</title>
<polygon fill="none" stroke="#000000" points="1405,-208 1405,-260 1529,-260 1529,-208 1405,-208"/>
</g>
<!-- AdminComponent -->
<g id="node1" class="node">
<title>AdminComponent</title>
<polygon fill="#ffffb3" stroke="#000000" points="2898.2204,-122 2777.7796,-122 2777.7796,-86 2898.2204,-86 2898.2204,-122"/>
<text text-anchor="middle" x="2838" y="-99.8" font-family="Times,serif" font-size="14.00" fill="#000000">AdminComponent</text>
</g>
<!-- AppModule -->
<g id="node19" class="node">
<title>AppModule</title>
<polygon fill="#8dd3c7" stroke="#000000" points="1508.6571,-187 1505.6571,-191 1484.6571,-191 1481.6571,-187 1425.3429,-187 1425.3429,-151 1508.6571,-151 1508.6571,-187"/>
<text text-anchor="middle" x="1467" y="-164.8" font-family="Times,serif" font-size="14.00" fill="#000000">AppModule</text>
</g>
<!-- AdminComponent&#45;&gt;AppModule -->
<g id="edge1" class="edge">
<title>AdminComponent&#45;&gt;AppModule</title>
<path fill="none" stroke="#000000" d="M2838,-122.1532C2838,-145.7566 2838,-184 2838,-184 2838,-184 1518.7799,-184 1518.7799,-184"/>
<polygon fill="#000000" stroke="#000000" points="1518.7799,-180.5001 1508.7799,-184 1518.7799,-187.5001 1518.7799,-180.5001"/>
</g>
<!-- AlertsComponent -->
<g id="node2" class="node">
<title>AlertsComponent</title>
<polygon fill="#ffffb3" stroke="#000000" points="2759.5409,-122 2644.4591,-122 2644.4591,-86 2759.5409,-86 2759.5409,-122"/>
<text text-anchor="middle" x="2702" y="-99.8" font-family="Times,serif" font-size="14.00" fill="#000000">AlertsComponent</text>
</g>
<!-- AlertsComponent&#45;&gt;AppModule -->
<g id="edge2" class="edge">
<title>AlertsComponent&#45;&gt;AppModule</title>
<path fill="none" stroke="#000000" d="M2702,-122.0109C2702,-144.4852 2702,-180 2702,-180 2702,-180 1518.7983,-180 1518.7983,-180"/>
<polygon fill="#000000" stroke="#000000" points="1518.7984,-176.5001 1508.7983,-180 1518.7983,-183.5001 1518.7984,-176.5001"/>
</g>
<!-- AppComponent -->
<g id="node3" class="node">
<title>AppComponent</title>
<polygon fill="#ffffb3" stroke="#000000" points="2626.9399,-122 2521.0601,-122 2521.0601,-86 2626.9399,-86 2626.9399,-122"/>
<text text-anchor="middle" x="2574" y="-99.8" font-family="Times,serif" font-size="14.00" fill="#000000">AppComponent</text>
</g>
<!-- AppComponent&#45;&gt;AppModule -->
<g id="edge3" class="edge">
<title>AppComponent&#45;&gt;AppModule</title>
<path fill="none" stroke="#000000" d="M2574,-122.0449C2574,-143.6623 2574,-177 2574,-177 2574,-177 1518.709,-177 1518.709,-177"/>
<polygon fill="#000000" stroke="#000000" points="1518.7091,-173.5001 1508.709,-177 1518.709,-180.5001 1518.7091,-173.5001"/>
</g>
<!-- BotaoLateralComponent -->
<g id="node4" class="node">
<title>BotaoLateralComponent</title>
<polygon fill="#ffffb3" stroke="#000000" points="2503.413,-122 2348.587,-122 2348.587,-86 2503.413,-86 2503.413,-122"/>
<text text-anchor="middle" x="2426" y="-99.8" font-family="Times,serif" font-size="14.00" fill="#000000">BotaoLateralComponent</text>
</g>
<!-- BotaoLateralComponent&#45;&gt;AppModule -->
<g id="edge4" class="edge">
<title>BotaoLateralComponent&#45;&gt;AppModule</title>
<path fill="none" stroke="#000000" d="M2426,-122.1289C2426,-142.5724 2426,-173 2426,-173 2426,-173 1518.8237,-173 1518.8237,-173"/>
<polygon fill="#000000" stroke="#000000" points="1518.8237,-169.5001 1508.8237,-173 1518.8236,-176.5001 1518.8237,-169.5001"/>
</g>
<!-- BotaoSubirComponent -->
<g id="node5" class="node">
<title>BotaoSubirComponent</title>
<polygon fill="#ffffb3" stroke="#000000" points="2330.608,-122 2185.392,-122 2185.392,-86 2330.608,-86 2330.608,-122"/>
<text text-anchor="middle" x="2258" y="-99.8" font-family="Times,serif" font-size="14.00" fill="#000000">BotaoSubirComponent</text>
</g>
<!-- BotaoSubirComponent&#45;&gt;AppModule -->
<g id="edge5" class="edge">
<title>BotaoSubirComponent&#45;&gt;AppModule</title>
<path fill="none" stroke="#000000" d="M2258,-122.1061C2258,-141.3391 2258,-169 2258,-169 2258,-169 1518.6911,-169 1518.6911,-169"/>
<polygon fill="#000000" stroke="#000000" points="1518.6911,-165.5001 1508.6911,-169 1518.6911,-172.5001 1518.6911,-165.5001"/>
</g>
<!-- CadastroComponent -->
<g id="node6" class="node">
<title>CadastroComponent</title>
<polygon fill="#ffffb3" stroke="#000000" points="2167.594,-122 2036.406,-122 2036.406,-86 2167.594,-86 2167.594,-122"/>
<text text-anchor="middle" x="2102" y="-99.8" font-family="Times,serif" font-size="14.00" fill="#000000">CadastroComponent</text>
</g>
<!-- CadastroComponent&#45;&gt;AppModule -->
<g id="edge6" class="edge">
<title>CadastroComponent&#45;&gt;AppModule</title>
<path fill="none" stroke="#000000" d="M2102,-122.2667C2102,-140.5552 2102,-166 2102,-166 2102,-166 1518.6641,-166 1518.6641,-166"/>
<polygon fill="#000000" stroke="#000000" points="1518.6642,-162.5001 1508.6641,-166 1518.6641,-169.5001 1518.6642,-162.5001"/>
</g>
<!-- DeletePostagemComponent -->
<g id="node7" class="node">
<title>DeletePostagemComponent</title>
<polygon fill="#ffffb3" stroke="#000000" points="2018.3019,-122 1845.6981,-122 1845.6981,-86 2018.3019,-86 2018.3019,-122"/>
<text text-anchor="middle" x="1932" y="-99.8" font-family="Times,serif" font-size="14.00" fill="#000000">DeletePostagemComponent</text>
</g>
<!-- DeletePostagemComponent&#45;&gt;AppModule -->
<g id="edge7" class="edge">
<title>DeletePostagemComponent&#45;&gt;AppModule</title>
<path fill="none" stroke="#000000" d="M1932,-122.0336C1932,-139.0597 1932,-162 1932,-162 1932,-162 1518.6749,-162 1518.6749,-162"/>
<polygon fill="#000000" stroke="#000000" points="1518.6749,-158.5001 1508.6749,-162 1518.6748,-165.5001 1518.6749,-158.5001"/>
</g>
<!-- DeleteTemaComponent -->
<g id="node8" class="node">
<title>DeleteTemaComponent</title>
<polygon fill="#ffffb3" stroke="#000000" points="1827.7366,-122 1678.2634,-122 1678.2634,-86 1827.7366,-86 1827.7366,-122"/>
<text text-anchor="middle" x="1753" y="-99.8" font-family="Times,serif" font-size="14.00" fill="#000000">DeleteTemaComponent</text>
</g>
<!-- DeleteTemaComponent&#45;&gt;AppModule -->
<g id="edge8" class="edge">
<title>DeleteTemaComponent&#45;&gt;AppModule</title>
<path fill="none" stroke="#000000" d="M1753,-122.0091C1753,-138.0494 1753,-159 1753,-159 1753,-159 1518.8931,-159 1518.8931,-159"/>
<polygon fill="#000000" stroke="#000000" points="1518.8932,-155.5001 1508.8931,-159 1518.8931,-162.5001 1518.8932,-155.5001"/>
</g>
<!-- EquipeComponent -->
<g id="node9" class="node">
<title>EquipeComponent</title>
<polygon fill="#ffffb3" stroke="#000000" points="1660.4902,-122 1539.5098,-122 1539.5098,-86 1660.4902,-86 1660.4902,-122"/>
<text text-anchor="middle" x="1600" y="-99.8" font-family="Times,serif" font-size="14.00" fill="#000000">EquipeComponent</text>
</g>
<!-- EquipeComponent&#45;&gt;AppModule -->
<g id="edge9" class="edge">
<title>EquipeComponent&#45;&gt;AppModule</title>
<path fill="none" stroke="#000000" d="M1600,-122.1243C1600,-136.7832 1600,-155 1600,-155 1600,-155 1518.7171,-155 1518.7171,-155"/>
<polygon fill="#000000" stroke="#000000" points="1518.7172,-151.5001 1508.7171,-155 1518.7171,-158.5001 1518.7172,-151.5001"/>
</g>
<!-- FeedComponent -->
<g id="node10" class="node">
<title>FeedComponent</title>
<polygon fill="#ffffb3" stroke="#000000" points="1521.0452,-122 1412.9548,-122 1412.9548,-86 1521.0452,-86 1521.0452,-122"/>
<text text-anchor="middle" x="1467" y="-99.8" font-family="Times,serif" font-size="14.00" fill="#000000">FeedComponent</text>
</g>
<!-- FeedComponent&#45;&gt;AppModule -->
<g id="edge10" class="edge">
<title>FeedComponent&#45;&gt;AppModule</title>
<path fill="none" stroke="#000000" d="M1467,-122.1061C1467,-122.1061 1467,-140.991 1467,-140.991"/>
<polygon fill="#000000" stroke="#000000" points="1463.5001,-140.9909 1467,-150.991 1470.5001,-140.991 1463.5001,-140.9909"/>
</g>
<!-- FooterComponent -->
<g id="node11" class="node">
<title>FooterComponent</title>
<polygon fill="#ffffb3" stroke="#000000" points="1394.8809,-122 1277.1191,-122 1277.1191,-86 1394.8809,-86 1394.8809,-122"/>
<text text-anchor="middle" x="1336" y="-99.8" font-family="Times,serif" font-size="14.00" fill="#000000">FooterComponent</text>
</g>
<!-- FooterComponent&#45;&gt;AppModule -->
<g id="edge11" class="edge">
<title>FooterComponent&#45;&gt;AppModule</title>
<path fill="none" stroke="#000000" d="M1336,-122.1243C1336,-136.7832 1336,-155 1336,-155 1336,-155 1415.1906,-155 1415.1906,-155"/>
<polygon fill="#000000" stroke="#000000" points="1415.1906,-158.5001 1425.1906,-155 1415.1906,-151.5001 1415.1906,-158.5001"/>
</g>
<!-- HomeInicioComponent -->
<g id="node12" class="node">
<title>HomeInicioComponent</title>
<polygon fill="#ffffb3" stroke="#000000" points="1259.2007,-122 1110.7993,-122 1110.7993,-86 1259.2007,-86 1259.2007,-122"/>
<text text-anchor="middle" x="1185" y="-99.8" font-family="Times,serif" font-size="14.00" fill="#000000">HomeInicioComponent</text>
</g>
<!-- HomeInicioComponent&#45;&gt;AppModule -->
<g id="edge12" class="edge">
<title>HomeInicioComponent&#45;&gt;AppModule</title>
<path fill="none" stroke="#000000" d="M1185,-122.0091C1185,-138.0494 1185,-159 1185,-159 1185,-159 1415.0863,-159 1415.0863,-159"/>
<polygon fill="#000000" stroke="#000000" points="1415.0863,-162.5001 1425.0863,-159 1415.0862,-155.5001 1415.0863,-162.5001"/>
</g>
<!-- NavbarComponent -->
<g id="node13" class="node">
<title>NavbarComponent</title>
<polygon fill="#ffffb3" stroke="#000000" points="1093.0297,-122 970.9703,-122 970.9703,-86 1093.0297,-86 1093.0297,-122"/>
<text text-anchor="middle" x="1032" y="-99.8" font-family="Times,serif" font-size="14.00" fill="#000000">NavbarComponent</text>
</g>
<!-- NavbarComponent&#45;&gt;AppModule -->
<g id="edge13" class="edge">
<title>NavbarComponent&#45;&gt;AppModule</title>
<path fill="none" stroke="#000000" d="M1032,-122.0336C1032,-139.0597 1032,-162 1032,-162 1032,-162 1415.2904,-162 1415.2904,-162"/>
<polygon fill="#000000" stroke="#000000" points="1415.2904,-165.5001 1425.2904,-162 1415.2903,-158.5001 1415.2904,-165.5001"/>
</g>
<!-- PostTemaComponent -->
<g id="node14" class="node">
<title>PostTemaComponent</title>
<polygon fill="#ffffb3" stroke="#000000" points="952.823,-122 815.177,-122 815.177,-86 952.823,-86 952.823,-122"/>
<text text-anchor="middle" x="884" y="-99.8" font-family="Times,serif" font-size="14.00" fill="#000000">PostTemaComponent</text>
</g>
<!-- PostTemaComponent&#45;&gt;AppModule -->
<g id="edge14" class="edge">
<title>PostTemaComponent&#45;&gt;AppModule</title>
<path fill="none" stroke="#000000" d="M884,-122.2667C884,-140.5552 884,-166 884,-166 884,-166 1415.0721,-166 1415.0721,-166"/>
<polygon fill="#000000" stroke="#000000" points="1415.0721,-169.5001 1425.0721,-166 1415.072,-162.5001 1415.0721,-169.5001"/>
</g>
<!-- PostagemTemaComponent -->
<g id="node15" class="node">
<title>PostagemTemaComponent</title>
<polygon fill="#ffffb3" stroke="#000000" points="797.6428,-122 630.3572,-122 630.3572,-86 797.6428,-86 797.6428,-122"/>
<text text-anchor="middle" x="714" y="-99.8" font-family="Times,serif" font-size="14.00" fill="#000000">PostagemTemaComponent</text>
</g>
<!-- PostagemTemaComponent&#45;&gt;AppModule -->
<g id="edge15" class="edge">
<title>PostagemTemaComponent&#45;&gt;AppModule</title>
<path fill="none" stroke="#000000" d="M714,-122.1061C714,-141.3391 714,-169 714,-169 714,-169 1415.1728,-169 1415.1728,-169"/>
<polygon fill="#000000" stroke="#000000" points="1415.1728,-172.5001 1425.1728,-169 1415.1728,-165.5001 1415.1728,-172.5001"/>
</g>
<!-- PutPostagemComponent -->
<g id="node16" class="node">
<title>PutPostagemComponent</title>
<polygon fill="#ffffb3" stroke="#000000" points="612.4438,-122 457.5562,-122 457.5562,-86 612.4438,-86 612.4438,-122"/>
<text text-anchor="middle" x="535" y="-99.8" font-family="Times,serif" font-size="14.00" fill="#000000">PutPostagemComponent</text>
</g>
<!-- PutPostagemComponent&#45;&gt;AppModule -->
<g id="edge16" class="edge">
<title>PutPostagemComponent&#45;&gt;AppModule</title>
<path fill="none" stroke="#000000" d="M535,-122.1289C535,-142.5724 535,-173 535,-173 535,-173 1415.1433,-173 1415.1433,-173"/>
<polygon fill="#000000" stroke="#000000" points="1415.1433,-176.5001 1425.1433,-173 1415.1433,-169.5001 1415.1433,-176.5001"/>
</g>
<!-- PutTemaComponent -->
<g id="node17" class="node">
<title>PutTemaComponent</title>
<polygon fill="#ffffb3" stroke="#000000" points="439.8781,-122 308.1219,-122 308.1219,-86 439.8781,-86 439.8781,-122"/>
<text text-anchor="middle" x="374" y="-99.8" font-family="Times,serif" font-size="14.00" fill="#000000">PutTemaComponent</text>
</g>
<!-- PutTemaComponent&#45;&gt;AppModule -->
<g id="edge17" class="edge">
<title>PutTemaComponent&#45;&gt;AppModule</title>
<path fill="none" stroke="#000000" d="M374,-122.0449C374,-143.6623 374,-177 374,-177 374,-177 1415.1559,-177 1415.1559,-177"/>
<polygon fill="#000000" stroke="#000000" points="1415.1559,-180.5001 1425.1559,-177 1415.1559,-173.5001 1415.1559,-180.5001"/>
</g>
<!-- SobreComponent -->
<g id="node18" class="node">
<title>SobreComponent</title>
<polygon fill="#ffffb3" stroke="#000000" points="289.9902,-122 176.0098,-122 176.0098,-86 289.9902,-86 289.9902,-122"/>
<text text-anchor="middle" x="233" y="-99.8" font-family="Times,serif" font-size="14.00" fill="#000000">SobreComponent</text>
</g>
<!-- SobreComponent&#45;&gt;AppModule -->
<g id="edge18" class="edge">
<title>SobreComponent&#45;&gt;AppModule</title>
<path fill="none" stroke="#000000" d="M233,-122.0109C233,-144.4852 233,-180 233,-180 233,-180 1415.2355,-180 1415.2355,-180"/>
<polygon fill="#000000" stroke="#000000" points="1415.2356,-183.5001 1425.2355,-180 1415.2355,-176.5001 1415.2356,-183.5001"/>
</g>
<!-- AppComponent  -->
<g id="node21" class="node">
<title>AppComponent </title>
<polygon fill="#80b1d3" stroke="#000000" points="1521.439,-252 1412.561,-252 1412.561,-216 1521.439,-216 1521.439,-252"/>
<text text-anchor="middle" x="1467" y="-229.8" font-family="Times,serif" font-size="14.00" fill="#000000">AppComponent </text>
</g>
<!-- AppModule&#45;&gt;AppComponent  -->
<g id="edge20" class="edge">
<title>AppModule&#45;&gt;AppComponent </title>
<path fill="none" stroke="#000000" stroke-dasharray="1,5" d="M1467,-187.1061C1467,-187.1061 1467,-205.991 1467,-205.991"/>
<polygon fill="#000000" stroke="#000000" points="1463.5001,-205.9909 1467,-215.991 1470.5001,-205.991 1463.5001,-205.9909"/>
</g>
<!-- AppRoutingModule -->
<g id="node20" class="node">
<title>AppRoutingModule</title>
<polygon fill="#8dd3c7" stroke="#000000" points="152.2744,-122 149.2744,-126 128.2744,-126 125.2744,-122 23.7256,-122 23.7256,-86 152.2744,-86 152.2744,-122"/>
<text text-anchor="middle" x="88" y="-99.8" font-family="Times,serif" font-size="14.00" fill="#000000">AppRoutingModule</text>
</g>
<!-- AppRoutingModule&#45;&gt;AppModule -->
<g id="edge19" class="edge">
<title>AppRoutingModule&#45;&gt;AppModule</title>
<path fill="none" stroke="#000000" d="M88,-122.1532C88,-145.7566 88,-184 88,-184 88,-184 1414.9763,-184 1414.9763,-184"/>
<polygon fill="#000000" stroke="#000000" points="1414.9763,-187.5001 1424.9763,-184 1414.9763,-180.5001 1414.9763,-187.5001"/>
</g>
</g>
</svg>
